<svg width="64" height="80" viewBox="0 0 64 80" fill="none" xmlns="http://www.w3.org/2000/svg">
<g filter="url(#filter0_d_623_4676)">
<path d="M56 32.0623C56 43.0156 41.375 62.5161 34.9625 70.5619C33.425 72.4794 30.575 72.4794 29.0375 70.5619C22.625 62.5161 8 43.0156 8 32.0623C8 18.7779 18.75 8 32 8C45.25 8 56 18.7779 56 32.0623Z" fill="white"/>
<path d="M32 8.5C44.9726 8.5 55.5 19.053 55.5 32.0625C55.4999 34.7025 54.6155 37.9026 53.1543 41.373C51.6964 44.8355 49.6812 48.528 47.46 52.1406C43.018 59.3648 37.7734 66.2325 34.5723 70.249C33.2767 71.8647 30.9186 71.915 29.5566 70.4004L29.4277 70.249C26.2266 66.2325 20.982 59.3648 16.54 52.1406C14.3188 48.528 12.3036 44.8355 10.8457 41.373C9.38445 37.9026 8.50005 34.7025 8.5 32.0625C8.5 19.053 19.0274 8.5 32 8.5Z" stroke="#390000"/>
<path d="M32 8.5C44.9726 8.5 55.5 19.053 55.5 32.0625C55.4999 34.7025 54.6155 37.9026 53.1543 41.373C51.6964 44.8355 49.6812 48.528 47.46 52.1406C43.018 59.3648 37.7734 66.2325 34.5723 70.249C33.2767 71.8647 30.9186 71.915 29.5566 70.4004L29.4277 70.249C26.2266 66.2325 20.982 59.3648 16.54 52.1406C14.3188 48.528 12.3036 44.8355 10.8457 41.373C9.38445 37.9026 8.50005 34.7025 8.5 32.0625C8.5 19.053 19.0274 8.5 32 8.5Z" stroke="white" stroke-opacity="0.2"/>
</g>
<path d="M24.5165 23.6718C24.9731 23.6718 25.4109 23.8531 25.7337 24.1759C26.0566 24.4988 26.2379 24.9366 26.2379 25.3931V42.6069C26.2379 43.0634 26.0566 43.5012 25.7337 43.8241C25.4109 44.1469 24.9731 44.3282 24.5165 44.3282H22.2214C21.7648 44.3282 21.327 44.1469 21.0042 43.8241C20.6814 43.5012 20.5 43.0634 20.5 42.6069V25.3931C20.5 24.9366 20.6814 24.4988 21.0042 24.1759C21.327 23.8531 21.7648 23.6718 22.2214 23.6718H24.5165ZM39.7576 27.2568L43.4459 41.6234C43.5021 41.8424 43.5147 42.0703 43.4828 42.2941C43.451 42.5179 43.3753 42.7332 43.2602 42.9278C43.1452 43.1224 42.9929 43.2924 42.8121 43.4282C42.6313 43.5639 42.4255 43.6627 42.2065 43.7189L40.0537 44.2697C39.8347 44.3259 39.6068 44.3385 39.383 44.3066C39.1591 44.2748 38.9438 44.1991 38.7492 44.084C38.5546 43.969 38.3846 43.8167 38.2489 43.6359C38.1131 43.4551 38.0144 43.2493 37.9582 43.0303L34.2698 28.6683C34.2136 28.4494 34.2011 28.2215 34.2329 27.9976C34.2648 27.7738 34.3404 27.5585 34.4555 27.3639C34.5706 27.1693 34.7229 26.9993 34.9037 26.8635C35.0845 26.7278 35.2902 26.629 35.5092 26.5728L37.6621 26.0186C37.8811 25.9623 38.109 25.9498 38.3328 25.9816C38.5566 26.0135 38.772 26.0891 38.9665 26.2042C39.1611 26.3193 39.3311 26.4716 39.4669 26.6524C39.6026 26.8332 39.7014 27.0378 39.7576 27.2568Z" fill="#390000"/>
<path d="M33.1234 25.3931C33.1234 24.8714 32.9723 24.6169 32.7033 24.248C32.4342 23.879 31.7825 23.6718 31.402 23.6718H29.1069C28.7264 23.6718 28.0747 23.879 27.8056 24.248C27.5366 24.6169 27.3855 24.8714 27.3855 25.3931V27.3604C27.3855 27.4256 27.4044 27.4882 27.438 27.5343C27.4716 27.5804 27.5172 27.6063 27.5648 27.6063H32.9441C32.9916 27.6063 33.0373 27.5804 33.0709 27.5343C33.1045 27.4882 33.1234 27.4256 33.1234 27.3604V25.3931ZM27.3855 42.6069C27.3855 43.1286 27.5366 43.3831 27.8056 43.752C28.0747 44.121 28.7264 44.3282 29.1069 44.3282H31.402C31.7825 44.3282 32.4342 44.121 32.7033 43.752C32.9723 43.3831 33.1234 43.1286 33.1234 42.6069V40.5166C33.1234 40.484 33.114 40.4527 33.0971 40.4297C33.0803 40.4066 33.0575 40.3937 33.0337 40.3937H27.4751C27.4514 40.3937 27.4286 40.4066 27.4118 40.4297C27.3949 40.4527 27.3855 40.484 27.3855 40.5166V42.6069Z" fill="#390000"/>
<path d="M33.0337 29.5736H27.4751C27.4256 29.5736 27.3855 29.6287 27.3855 29.6966V38.3034C27.3855 38.3713 27.4256 38.4264 27.4751 38.4264H33.0337C33.0833 38.4264 33.1234 38.3713 33.1234 38.3034V29.6966C33.1234 29.6287 33.0833 29.5736 33.0337 29.5736Z" fill="#390000"/>
<defs>
<filter id="filter0_d_623_4676" x="0" y="0" width="64" height="80" filterUnits="userSpaceOnUse" color-interpolation-filters="sRGB">
<feFlood flood-opacity="0" result="BackgroundImageFix"/>
<feColorMatrix in="SourceAlpha" type="matrix" values="0 0 0 0 0 0 0 0 0 0 0 0 0 0 0 0 0 0 127 0" result="hardAlpha"/>
<feOffset/>
<feGaussianBlur stdDeviation="4"/>
<feColorMatrix type="matrix" values="0 0 0 0 0.443137 0 0 0 0 0.443137 0 0 0 0 0.443137 0 0 0 0.32 0"/>
<feBlend mode="normal" in2="BackgroundImageFix" result="effect1_dropShadow_623_4676"/>
<feBlend mode="normal" in="SourceGraphic" in2="effect1_dropShadow_623_4676" result="shape"/>
</filter>
</defs>
</svg>
