<svg width="64" height="80" viewBox="0 0 64 80" fill="none" xmlns="http://www.w3.org/2000/svg">
<g filter="url(#filter0_d_623_4659)">
<path d="M56 32.0623C56 43.0156 41.375 62.5161 34.9625 70.5619C33.425 72.4794 30.575 72.4794 29.0375 70.5619C22.625 62.5161 8 43.0156 8 32.0623C8 18.7779 18.75 8 32 8C45.25 8 56 18.7779 56 32.0623Z" fill="white"/>
<path d="M32 8.5C44.9726 8.5 55.5 19.053 55.5 32.0625C55.4999 34.7025 54.6155 37.9026 53.1543 41.373C51.6964 44.8355 49.6812 48.528 47.46 52.1406C43.018 59.3648 37.7734 66.2325 34.5723 70.249C33.2767 71.8647 30.9186 71.915 29.5566 70.4004L29.4277 70.249C26.2266 66.2325 20.982 59.3648 16.54 52.1406C14.3188 48.528 12.3036 44.8355 10.8457 41.373C9.38445 37.9026 8.50005 34.7025 8.5 32.0625C8.5 19.053 19.0274 8.5 32 8.5Z" stroke="#390000"/>
<path d="M32 8.5C44.9726 8.5 55.5 19.053 55.5 32.0625C55.4999 34.7025 54.6155 37.9026 53.1543 41.373C51.6964 44.8355 49.6812 48.528 47.46 52.1406C43.018 59.3648 37.7734 66.2325 34.5723 70.249C33.2767 71.8647 30.9186 71.915 29.5566 70.4004L29.4277 70.249C26.2266 66.2325 20.982 59.3648 16.54 52.1406C14.3188 48.528 12.3036 44.8355 10.8457 41.373C9.38445 37.9026 8.50005 34.7025 8.5 32.0625C8.5 19.053 19.0274 8.5 32 8.5Z" stroke="white" stroke-opacity="0.2"/>
</g>
<path fill-rule="evenodd" clip-rule="evenodd" d="M32.274 21.4583C31.9835 21.4583 31.7049 21.5737 31.4995 21.7791C31.2941 21.9845 31.1787 22.2631 31.1787 22.5536V26.387C31.1787 26.6774 31.2941 26.956 31.4995 27.1614C31.7049 27.3668 31.9835 27.4822 32.274 27.4822C32.5645 27.4822 32.8431 27.3668 33.0485 27.1614C33.2539 26.956 33.3693 26.6774 33.3693 26.387V22.5536C33.3693 22.2631 33.2539 21.9845 33.0485 21.7791C32.8431 21.5737 32.5645 21.4583 32.274 21.4583ZM25.6039 46.2494C26.657 46.325 27.9521 46.3754 29.5359 46.3754C31.1196 46.3754 32.4147 46.3256 33.4678 46.2494C36.0532 46.0643 37.8708 44.3421 38.3844 41.9944H39.1916C41.2754 41.9944 43.2967 40.5421 43.4533 38.2037C43.5156 37.2635 43.5156 36.3203 43.4533 35.3801C43.2967 33.0417 41.2754 31.5894 39.1916 31.5894H38.2946C38.0838 30.642 37.3423 29.9137 36.3358 29.7647C35.1721 29.5922 33.079 29.3989 29.5359 29.3989C25.9927 29.3989 23.8997 29.5922 22.736 29.7647C21.6281 29.929 20.8412 30.7943 20.7295 31.8819C20.6194 32.9519 20.5 34.8182 20.5 37.8872C20.5 39.0322 20.5164 40.0026 20.5433 40.8219C20.638 43.7512 22.6051 46.0348 25.6039 46.2494ZM38.506 34.3276C38.5454 35.2788 38.5717 36.4513 38.5717 37.8872C38.5717 38.3742 38.569 38.8305 38.5635 39.2562H39.1916C40.1007 39.2562 40.6779 38.6692 40.7212 38.0208C40.7753 37.2024 40.7753 36.3814 40.7212 35.563C40.6779 34.9152 40.1013 34.3276 39.1916 34.3276H38.506ZM26.7977 23.6488C26.7977 23.3583 26.9131 23.0798 27.1185 22.8744C27.3239 22.669 27.6025 22.5536 27.893 22.5536C28.1835 22.5536 28.462 22.669 28.6674 22.8744C28.8728 23.0798 28.9882 23.3583 28.9882 23.6488V27.4822C28.9882 27.7727 28.8728 28.0513 28.6674 28.2567C28.462 28.4621 28.1835 28.5775 27.893 28.5775C27.6025 28.5775 27.3239 28.4621 27.1185 28.2567C26.9131 28.0513 26.7977 27.7727 26.7977 27.4822V23.6488Z" fill="#390000"/>
<defs>
<filter id="filter0_d_623_4659" x="0" y="0" width="64" height="80" filterUnits="userSpaceOnUse" color-interpolation-filters="sRGB">
<feFlood flood-opacity="0" result="BackgroundImageFix"/>
<feColorMatrix in="SourceAlpha" type="matrix" values="0 0 0 0 0 0 0 0 0 0 0 0 0 0 0 0 0 0 127 0" result="hardAlpha"/>
<feOffset/>
<feGaussianBlur stdDeviation="4"/>
<feColorMatrix type="matrix" values="0 0 0 0 0.443137 0 0 0 0 0.443137 0 0 0 0 0.443137 0 0 0 0.32 0"/>
<feBlend mode="normal" in2="BackgroundImageFix" result="effect1_dropShadow_623_4659"/>
<feBlend mode="normal" in="SourceGraphic" in2="effect1_dropShadow_623_4659" result="shape"/>
</filter>
</defs>
</svg>
