<svg width="64" height="80" viewBox="0 0 64 80" fill="none" xmlns="http://www.w3.org/2000/svg">
<g filter="url(#filter0_d_623_4670)">
<path d="M56 32.0623C56 43.0156 41.375 62.5161 34.9625 70.5619C33.425 72.4794 30.575 72.4794 29.0375 70.5619C22.625 62.5161 8 43.0156 8 32.0623C8 18.7779 18.75 8 32 8C45.25 8 56 18.7779 56 32.0623Z" fill="white"/>
<path d="M32 8.5C44.9726 8.5 55.5 19.053 55.5 32.0625C55.4999 34.7025 54.6155 37.9026 53.1543 41.373C51.6964 44.8355 49.6812 48.528 47.46 52.1406C43.018 59.3648 37.7734 66.2325 34.5723 70.249C33.2767 71.8647 30.9186 71.915 29.5566 70.4004L29.4277 70.249C26.2266 66.2325 20.982 59.3648 16.54 52.1406C14.3188 48.528 12.3036 44.8355 10.8457 41.373C9.38445 37.9026 8.50005 34.7025 8.5 32.0625C8.5 19.053 19.0274 8.5 32 8.5Z" stroke="#390000"/>
<path d="M32 8.5C44.9726 8.5 55.5 19.053 55.5 32.0625C55.4999 34.7025 54.6155 37.9026 53.1543 41.373C51.6964 44.8355 49.6812 48.528 47.46 52.1406C43.018 59.3648 37.7734 66.2325 34.5723 70.249C33.2767 71.8647 30.9186 71.915 29.5566 70.4004L29.4277 70.249C26.2266 66.2325 20.982 59.3648 16.54 52.1406C14.3188 48.528 12.3036 44.8355 10.8457 41.373C9.38445 37.9026 8.50005 34.7025 8.5 32.0625C8.5 19.053 19.0274 8.5 32 8.5Z" stroke="white" stroke-opacity="0.2"/>
</g>
<path d="M32 28.7333C32.9725 28.7333 33.9051 28.347 34.5927 27.6594C35.2804 26.9718 35.6667 26.0391 35.6667 25.0667C35.6667 24.0942 35.2804 23.1616 34.5927 22.4739C33.9051 21.7863 32.9725 21.4 32 21.4C31.0275 21.4 30.0949 21.7863 29.4073 22.4739C28.7196 23.1616 28.3333 24.0942 28.3333 25.0667C28.3333 26.0391 28.7196 26.9718 29.4073 27.6594C30.0949 28.347 31.0275 28.7333 32 28.7333ZM32.1433 32.9286C32.062 33.0022 31.938 33.0022 31.8567 32.9286C29.2181 30.537 25.8056 28.9947 21.9997 28.7636C21.4484 28.7301 21 29.181 21 29.7333V41.1778C21 41.7301 21.4484 42.1745 21.9997 42.208C25.5443 42.4233 28.7477 43.7759 31.3024 45.8926C31.7054 46.2265 32.2946 46.2265 32.6976 45.8926C35.2523 43.7759 38.4557 42.4233 42.0003 42.208C42.5516 42.1745 43 41.7301 43 41.1778V29.7333C43 29.181 42.5516 28.7301 42.0003 28.7636C38.1944 28.9947 34.7819 30.537 32.1433 32.9286Z" fill="#390000"/>
<defs>
<filter id="filter0_d_623_4670" x="0" y="0" width="64" height="80" filterUnits="userSpaceOnUse" color-interpolation-filters="sRGB">
<feFlood flood-opacity="0" result="BackgroundImageFix"/>
<feColorMatrix in="SourceAlpha" type="matrix" values="0 0 0 0 0 0 0 0 0 0 0 0 0 0 0 0 0 0 127 0" result="hardAlpha"/>
<feOffset/>
<feGaussianBlur stdDeviation="4"/>
<feColorMatrix type="matrix" values="0 0 0 0 0.443137 0 0 0 0 0.443137 0 0 0 0 0.443137 0 0 0 0.32 0"/>
<feBlend mode="normal" in2="BackgroundImageFix" result="effect1_dropShadow_623_4670"/>
<feBlend mode="normal" in="SourceGraphic" in2="effect1_dropShadow_623_4670" result="shape"/>
</filter>
</defs>
</svg>
