<svg width="64" height="80" viewBox="0 0 64 80" fill="none" xmlns="http://www.w3.org/2000/svg">
<g filter="url(#filter0_d_623_7916)">
<path d="M56 32.0623C56 43.0156 41.375 62.5161 34.9625 70.5619C33.425 72.4794 30.575 72.4794 29.0375 70.5619C22.625 62.5161 8 43.0156 8 32.0623C8 18.7779 18.75 8 32 8C45.25 8 56 18.7779 56 32.0623Z" fill="white"/>
<path d="M32 8.5C44.9726 8.5 55.5 19.053 55.5 32.0625C55.4999 34.7025 54.6155 37.9026 53.1543 41.373C51.6964 44.8355 49.6812 48.528 47.46 52.1406C43.018 59.3648 37.7734 66.2325 34.5723 70.249C33.2767 71.8647 30.9186 71.915 29.5566 70.4004L29.4277 70.249C26.2266 66.2325 20.982 59.3648 16.54 52.1406C14.3188 48.528 12.3036 44.8355 10.8457 41.373C9.38445 37.9026 8.50005 34.7025 8.5 32.0625C8.5 19.053 19.0274 8.5 32 8.5Z" stroke="#390000"/>
<path d="M32 8.5C44.9726 8.5 55.5 19.053 55.5 32.0625C55.4999 34.7025 54.6155 37.9026 53.1543 41.373C51.6964 44.8355 49.6812 48.528 47.46 52.1406C43.018 59.3648 37.7734 66.2325 34.5723 70.249C33.2767 71.8647 30.9186 71.915 29.5566 70.4004L29.4277 70.249C26.2266 66.2325 20.982 59.3648 16.54 52.1406C14.3188 48.528 12.3036 44.8355 10.8457 41.373C9.38445 37.9026 8.50005 34.7025 8.5 32.0625C8.5 19.053 19.0274 8.5 32 8.5Z" stroke="white" stroke-opacity="0.2"/>
</g>
<path d="M31.9948 23C32.2393 23 32.4806 23.0378 32.7175 23.1133C32.9542 23.1887 33.1757 23.3023 33.3815 23.4531L43.5661 31.2324C43.8113 31.421 43.9532 31.667 43.9909 31.9688C44.0285 32.2703 43.9529 32.5535 43.7643 32.8174C43.5758 33.0624 43.3305 33.2034 43.029 33.2412C42.7305 33.2785 42.0629 33.242 42.0485 33.2412V42.5127C42.0484 43.1348 41.8271 43.6679 41.3845 44.1113C40.9416 44.5549 40.408 44.7761 39.7849 44.7754H24.2048C23.5826 44.7753 23.0499 44.5541 22.6071 44.1113C22.1644 43.6686 21.9429 43.1356 21.9421 42.5127V33.2695C21.9421 33.2695 21.2634 33.3072 20.9616 33.2695C20.66 33.2318 20.4148 33.0812 20.2263 32.8174C20.0377 32.5535 19.967 32.2704 20.0143 31.9688C20.0619 31.667 20.2075 31.421 20.4518 31.2324L30.6091 23.4531C30.8165 23.3023 31.038 23.1887 31.2741 23.1133C31.5102 23.0379 31.7505 23 31.9948 23ZM25.9997 35C25.1714 35.0002 24.4997 35.6717 24.4997 36.5C24.4997 37.3283 25.1714 37.9998 25.9997 38C26.8281 38 27.4997 37.3284 27.4997 36.5C27.4997 35.6716 26.8281 35 25.9997 35ZM31.9997 35C31.1714 35.0002 30.4997 35.6717 30.4997 36.5C30.4997 37.3283 31.1714 37.9998 31.9997 38C32.8281 38 33.4997 37.3284 33.4997 36.5C33.4997 35.6716 32.8281 35 31.9997 35ZM37.9997 35C37.1714 35.0002 36.4997 35.6717 36.4997 36.5C36.4997 37.3283 37.1714 37.9998 37.9997 38C38.8281 38 39.4997 37.3284 39.4997 36.5C39.4997 35.6716 38.8281 35 37.9997 35Z" fill="#390000"/>
<defs>
<filter id="filter0_d_623_7916" x="0" y="0" width="64" height="80" filterUnits="userSpaceOnUse" color-interpolation-filters="sRGB">
<feFlood flood-opacity="0" result="BackgroundImageFix"/>
<feColorMatrix in="SourceAlpha" type="matrix" values="0 0 0 0 0 0 0 0 0 0 0 0 0 0 0 0 0 0 127 0" result="hardAlpha"/>
<feOffset/>
<feGaussianBlur stdDeviation="4"/>
<feColorMatrix type="matrix" values="0 0 0 0 0.443137 0 0 0 0 0.443137 0 0 0 0 0.443137 0 0 0 0.32 0"/>
<feBlend mode="normal" in2="BackgroundImageFix" result="effect1_dropShadow_623_7916"/>
<feBlend mode="normal" in="SourceGraphic" in2="effect1_dropShadow_623_7916" result="shape"/>
</filter>
</defs>
</svg>
