<svg width="64" height="80" viewBox="0 0 64 80" fill="none" xmlns="http://www.w3.org/2000/svg">
<g filter="url(#filter0_d_623_4622)">
<path d="M56 32.0623C56 43.0156 41.375 62.5161 34.9625 70.5619C33.425 72.4794 30.575 72.4794 29.0375 70.5619C22.625 62.5161 8 43.0156 8 32.0623C8 18.7779 18.75 8 32 8C45.25 8 56 18.7779 56 32.0623Z" fill="white"/>
<path d="M32 8.5C44.9726 8.5 55.5 19.053 55.5 32.0625C55.4999 34.7025 54.6155 37.9026 53.1543 41.373C51.6964 44.8355 49.6812 48.528 47.46 52.1406C43.018 59.3648 37.7734 66.2325 34.5723 70.249C33.2767 71.8647 30.9186 71.915 29.5566 70.4004L29.4277 70.249C26.2266 66.2325 20.982 59.3648 16.54 52.1406C14.3188 48.528 12.3036 44.8355 10.8457 41.373C9.38445 37.9026 8.50005 34.7025 8.5 32.0625C8.5 19.053 19.0274 8.5 32 8.5Z" stroke="#390000"/>
<path d="M32 8.5C44.9726 8.5 55.5 19.053 55.5 32.0625C55.4999 34.7025 54.6155 37.9026 53.1543 41.373C51.6964 44.8355 49.6812 48.528 47.46 52.1406C43.018 59.3648 37.7734 66.2325 34.5723 70.249C33.2767 71.8647 30.9186 71.915 29.5566 70.4004L29.4277 70.249C26.2266 66.2325 20.982 59.3648 16.54 52.1406C14.3188 48.528 12.3036 44.8355 10.8457 41.373C9.38445 37.9026 8.50005 34.7025 8.5 32.0625C8.5 19.053 19.0274 8.5 32 8.5Z" stroke="white" stroke-opacity="0.2"/>
</g>
<path fill-rule="evenodd" clip-rule="evenodd" d="M32.7128 22.7085C32.4957 22.5845 32.2499 22.5192 31.9998 22.5192C31.7497 22.5192 31.504 22.5845 31.2868 22.7085L21.2243 28.4585C20.9493 28.6159 20.7339 28.8597 20.6118 29.152C20.4896 29.4444 20.4674 29.7689 20.5488 30.0752C20.6301 30.3814 20.8103 30.6522 21.0614 30.8455C21.3125 31.0387 21.6204 31.1436 21.9373 31.1438V42.2063C21.5561 42.2063 21.1904 42.3577 20.9208 42.6273C20.6513 42.8969 20.4998 43.2625 20.4998 43.6438C20.4998 44.025 20.6513 44.3906 20.9208 44.6602C21.1904 44.9298 21.5561 45.0813 21.9373 45.0813H42.0623C42.4436 45.0813 42.8092 44.9298 43.0788 44.6602C43.3484 44.3906 43.4998 44.025 43.4998 43.6438C43.4998 43.2625 43.3484 42.8969 43.0788 42.6273C42.8092 42.3577 42.4436 42.2063 42.0623 42.2063V31.1438C42.3792 31.1436 42.6871 31.0387 42.9382 30.8455C43.1893 30.6522 43.3695 30.3814 43.4509 30.0752C43.5322 29.7689 43.51 29.4444 43.3879 29.152C43.2657 28.8597 43.0503 28.6159 42.7753 28.4585L32.7128 22.7085ZM26.2498 32.5813C25.8686 32.5813 25.5029 32.7327 25.2333 33.0023C24.9638 33.2719 24.8123 33.6375 24.8123 34.0188V39.3313C24.8123 39.7125 24.9638 40.0781 25.2333 40.3477C25.5029 40.6173 25.8686 40.7688 26.2498 40.7688C26.6311 40.7688 26.9967 40.6173 27.2663 40.3477C27.5359 40.0781 27.6873 39.7125 27.6873 39.3313V34.0188C27.6873 33.6375 27.5359 33.2719 27.2663 33.0023C26.9967 32.7327 26.6311 32.5813 26.2498 32.5813ZM30.5623 34.0188C30.5623 33.6375 30.7138 33.2719 30.9833 33.0023C31.2529 32.7327 31.6186 32.5813 31.9998 32.5813C32.3811 32.5813 32.7467 32.7327 33.0163 33.0023C33.2859 33.2719 33.4373 33.6375 33.4373 34.0188V39.3313C33.4373 39.7125 33.2859 40.0781 33.0163 40.3477C32.7467 40.6173 32.3811 40.7688 31.9998 40.7688C31.6186 40.7688 31.2529 40.6173 30.9833 40.3477C30.7138 40.0781 30.5623 39.7125 30.5623 39.3313V34.0188ZM37.7498 32.5813C37.3686 32.5813 37.0029 32.7327 36.7333 33.0023C36.4638 33.2719 36.3123 33.6375 36.3123 34.0188V39.3313C36.3123 39.7125 36.4638 40.0781 36.7333 40.3477C37.0029 40.6173 37.3686 40.7688 37.7498 40.7688C38.1311 40.7688 38.4967 40.6173 38.7663 40.3477C39.0359 40.0781 39.1873 39.7125 39.1873 39.3313V34.0188C39.1873 33.6375 39.0359 33.2719 38.7663 33.0023C38.4967 32.7327 38.1311 32.5813 37.7498 32.5813Z" fill="#390000"/>
<defs>
<filter id="filter0_d_623_4622" x="0" y="0" width="64" height="80" filterUnits="userSpaceOnUse" color-interpolation-filters="sRGB">
<feFlood flood-opacity="0" result="BackgroundImageFix"/>
<feColorMatrix in="SourceAlpha" type="matrix" values="0 0 0 0 0 0 0 0 0 0 0 0 0 0 0 0 0 0 127 0" result="hardAlpha"/>
<feOffset/>
<feGaussianBlur stdDeviation="4"/>
<feColorMatrix type="matrix" values="0 0 0 0 0.443137 0 0 0 0 0.443137 0 0 0 0 0.443137 0 0 0 0.32 0"/>
<feBlend mode="normal" in2="BackgroundImageFix" result="effect1_dropShadow_623_4622"/>
<feBlend mode="normal" in="SourceGraphic" in2="effect1_dropShadow_623_4622" result="shape"/>
</filter>
</defs>
</svg>
