<svg width="64" height="80" viewBox="0 0 64 80" fill="none" xmlns="http://www.w3.org/2000/svg">
<g filter="url(#filter0_d_623_4602)">
<path d="M56 32.0623C56 43.0156 41.375 62.5161 34.9625 70.5619C33.425 72.4794 30.575 72.4794 29.0375 70.5619C22.625 62.5161 8 43.0156 8 32.0623C8 18.7779 18.75 8 32 8C45.25 8 56 18.7779 56 32.0623Z" fill="white"/>
<path d="M32 8.5C44.9726 8.5 55.5 19.053 55.5 32.0625C55.4999 34.7025 54.6155 37.9026 53.1543 41.373C51.6964 44.8355 49.6812 48.528 47.46 52.1406C43.018 59.3648 37.7734 66.2325 34.5723 70.249C33.2767 71.8647 30.9186 71.915 29.5566 70.4004L29.4277 70.249C26.2266 66.2325 20.982 59.3648 16.54 52.1406C14.3188 48.528 12.3036 44.8355 10.8457 41.373C9.38445 37.9026 8.50005 34.7025 8.5 32.0625C8.5 19.053 19.0274 8.5 32 8.5Z" stroke="#390000"/>
<path d="M32 8.5C44.9726 8.5 55.5 19.053 55.5 32.0625C55.4999 34.7025 54.6155 37.9026 53.1543 41.373C51.6964 44.8355 49.6812 48.528 47.46 52.1406C43.018 59.3648 37.7734 66.2325 34.5723 70.249C33.2767 71.8647 30.9186 71.915 29.5566 70.4004L29.4277 70.249C26.2266 66.2325 20.982 59.3648 16.54 52.1406C14.3188 48.528 12.3036 44.8355 10.8457 41.373C9.38445 37.9026 8.50005 34.7025 8.5 32.0625C8.5 19.053 19.0274 8.5 32 8.5Z" stroke="white" stroke-opacity="0.2"/>
</g>
<path d="M42.4999 28.1667C42.8093 28.1667 43.106 28.2896 43.3248 28.5084C43.5436 28.7272 43.6665 29.0239 43.6665 29.3334C43.6665 29.6428 43.5436 29.9395 43.3248 30.1583C43.106 30.3771 42.8093 30.5 42.4999 30.5V43.3334C42.8093 43.3334 43.106 43.4563 43.3248 43.6751C43.5436 43.8939 43.6665 44.1906 43.6665 44.5C43.6665 44.8094 43.5436 45.1062 43.3248 45.325C43.106 45.5438 42.8093 45.6667 42.4999 45.6667H21.4999C21.1904 45.6667 20.8937 45.5438 20.6749 45.325C20.4561 45.1062 20.3332 44.8094 20.3332 44.5C20.3332 44.1906 20.4561 43.8939 20.6749 43.6751C20.8937 43.4563 21.1904 43.3334 21.4999 43.3334V30.5C21.1904 30.5 20.8937 30.3771 20.6749 30.1583C20.4561 29.9395 20.3332 29.6428 20.3332 29.3334C20.3332 29.0239 20.4561 28.7272 20.6749 28.5084C20.8937 28.2896 21.1904 28.1667 21.4999 28.1667H42.4999ZM26.1665 32.8334C25.8571 32.8334 25.5604 32.9563 25.3416 33.1751C25.1228 33.3939 24.9999 33.6906 24.9999 34V43.3334H27.3332V34C27.3332 33.6906 27.2103 33.3939 26.9915 33.1751C26.7727 32.9563 26.4759 32.8334 26.1665 32.8334ZM31.9999 32.8334C31.6904 32.8334 31.3937 32.9563 31.1749 33.1751C30.9561 33.3939 30.8332 33.6906 30.8332 34V43.3334H33.1665V34C33.1665 33.6906 33.0436 33.3939 32.8248 33.1751C32.606 32.9563 32.3093 32.8334 31.9999 32.8334ZM37.8332 32.8334C37.5238 32.8334 37.227 32.9563 37.0082 33.1751C36.7894 33.3939 36.6665 33.6906 36.6665 34V43.3334H38.9999V34C38.9999 33.6906 38.8769 33.3939 38.6582 33.1751C38.4394 32.9563 38.1426 32.8334 37.8332 32.8334Z" fill="#390000"/>
<path d="M31.143 22.299C31.3413 22.1076 31.6102 22 31.8906 22H36.9998C37.2803 22 37.5492 22.1076 37.7475 22.299C37.9457 22.4904 38.0571 22.7501 38.0571 23.0208V25.0625C38.0571 25.3332 37.9457 25.5929 37.7475 25.7843C37.5492 25.9758 37.2803 26.0833 36.9998 26.0833H33.1667V28.4167H30.8333V23.0208C30.8333 22.7501 30.9447 22.4904 31.143 22.299Z" fill="#390000"/>
<defs>
<filter id="filter0_d_623_4602" x="0" y="0" width="64" height="80" filterUnits="userSpaceOnUse" color-interpolation-filters="sRGB">
<feFlood flood-opacity="0" result="BackgroundImageFix"/>
<feColorMatrix in="SourceAlpha" type="matrix" values="0 0 0 0 0 0 0 0 0 0 0 0 0 0 0 0 0 0 127 0" result="hardAlpha"/>
<feOffset/>
<feGaussianBlur stdDeviation="4"/>
<feColorMatrix type="matrix" values="0 0 0 0 0.443137 0 0 0 0 0.443137 0 0 0 0 0.443137 0 0 0 0.32 0"/>
<feBlend mode="normal" in2="BackgroundImageFix" result="effect1_dropShadow_623_4602"/>
<feBlend mode="normal" in="SourceGraphic" in2="effect1_dropShadow_623_4602" result="shape"/>
</filter>
</defs>
</svg>
