<svg width="36" height="36" viewBox="0 0 36 36" fill="none" xmlns="http://www.w3.org/2000/svg">
<g filter="url(#filter0_d_626_4578)">
<rect x="8" y="8" width="20" height="20" rx="4" fill="#390000"/>
<rect x="8" y="8" width="20" height="20" rx="4" fill="white" fill-opacity="0.2"/>
<path d="M23.6787 16.2854C23.8553 16.2855 23.9998 16.4302 24 16.6067V23.5716C23.9999 24.2813 23.4236 24.8567 22.7139 24.8567H13.2861C12.5764 24.8567 12.0001 24.2813 12 23.5716V16.6067C12.0002 16.4302 12.1447 16.2855 12.3213 16.2854H23.6787ZM20.251 17.9954C20.0996 18.0043 19.9583 18.0736 19.8574 18.1868L17.2305 21.1419L16.1309 19.9055C16.0286 19.7979 15.8885 19.7342 15.7402 19.7278C15.5918 19.7215 15.446 19.7727 15.335 19.8714C15.224 19.97 15.1558 20.1081 15.1445 20.2561C15.1334 20.4043 15.1804 20.552 15.2754 20.6663L16.8018 22.3841C16.8554 22.4444 16.9215 22.4925 16.9951 22.5257C17.0689 22.5588 17.1496 22.5764 17.2305 22.5764C17.3113 22.5764 17.3911 22.5588 17.4648 22.5257C17.5385 22.4925 17.6045 22.4445 17.6582 22.3841L20.7129 18.9475C20.8136 18.8341 20.8654 18.6849 20.8564 18.5335C20.8475 18.3821 20.7783 18.2408 20.665 18.1399C20.5516 18.0391 20.4025 17.9866 20.251 17.9954ZM15.9639 11.1429C16.1406 11.1429 16.2861 11.2874 16.2861 11.4641V12.8567H19.7139V11.4641C19.7139 11.2874 19.8594 11.1429 20.0361 11.1429H21.1074C21.284 11.143 21.4286 11.2875 21.4287 11.4641V12.8567H22.7139C23.4237 12.8567 24 13.433 24 14.1429V15.1067C24 15.2835 23.8554 15.4289 23.6787 15.429H12.3213C12.1446 15.4289 12 15.2835 12 15.1067V14.1429C12 13.433 12.5763 12.8567 13.2861 12.8567H14.5713V11.4641C14.5714 11.2875 14.716 11.143 14.8926 11.1429H15.9639Z" fill="white"/>
</g>
<defs>
<filter id="filter0_d_626_4578" x="0" y="0" width="36" height="36" filterUnits="userSpaceOnUse" color-interpolation-filters="sRGB">
<feFlood flood-opacity="0" result="BackgroundImageFix"/>
<feColorMatrix in="SourceAlpha" type="matrix" values="0 0 0 0 0 0 0 0 0 0 0 0 0 0 0 0 0 0 127 0" result="hardAlpha"/>
<feOffset/>
<feGaussianBlur stdDeviation="4"/>
<feColorMatrix type="matrix" values="0 0 0 0 0.443137 0 0 0 0 0.443137 0 0 0 0 0.443137 0 0 0 0.32 0"/>
<feBlend mode="normal" in2="BackgroundImageFix" result="effect1_dropShadow_626_4578"/>
<feBlend mode="normal" in="SourceGraphic" in2="effect1_dropShadow_626_4578" result="shape"/>
</filter>
</defs>
</svg>
